# xmcd
#
# Track frame offsets: 
#        150
#        36965
#        48845
#        66087
#        82640
#        118507
#        139995
#        162175
#        178840
#        212882
#
# Disc length: 2960 seconds
#
# Revision: 2
# Processed by: cddbd v1.5.2PL0 Copyright (c) Steve Scherf et al.
# Submitted via: ExactAudioCopy v0.99pb4
#
DISCID=850b8e0a
DTITLE=Patricia Kaas - Carnets De Scène [CD2]
DYEAR=1900
DGENRE=
TTITLE0=Regarde Les Riches
TTITLE1=Summertime
TTITLE2=Patou Blues
TTITLE3=Kennedy Rose
TTITLE4=Mademoiselle Chante Le Blues
TTITLE5=Bessie
TTITLE6=Les Hommes Qui Passent
TTITLE7=Une Dernière Semaine À New York
TTITLE8=Quand Jimmy Dit
TTITLE9=Un Dernier Blues
EXTD=
EXTT0=
EXTT1=
EXTT2=
EXTT3=
EXTT4=
EXTT5=
EXTT6=
EXTT7=
EXTT8=
EXTT9=
PLAYORDER=
